<svg width="1237" height="400" viewBox="0 0 1237 400" fill="none" xmlns="http://www.w3.org/2000/svg">
<path fill-rule="evenodd" clip-rule="evenodd" d="M213.855 224.867L205.123 216.056L220.041 201.255L232.066 205.43L213.908 224.874L229.572 319.606L247.515 217.358L349.788 199.399L254.989 183.7L254.99 183.699L254.941 183.693L247.504 182.461L246.245 175.289L246.191 174.914L246.181 174.924L229.581 80.3887L212.67 182.508L110.571 199.391L205.138 215.986L128.91 292.247L144.396 294.38L213.855 224.867ZM330.109 108.521L266.984 171.696L257.723 163.376L315.874 105.199L330.109 108.521Z" fill="#283131"/>
<path d="M456.542 165.781C451.464 165.781 446.933 164.596 442.948 162.227C438.964 159.831 435.826 156.406 433.534 151.953C431.269 147.5 430.136 142.161 430.136 135.938C430.136 129.688 431.282 124.336 433.573 119.883C435.865 115.404 439.003 111.979 442.987 109.609C446.998 107.214 451.516 106.016 456.542 106.016C459.667 106.016 462.597 106.471 465.331 107.383C468.091 108.268 470.552 109.583 472.714 111.328C474.875 113.047 476.646 115.156 478.026 117.656C479.433 120.13 480.37 122.943 480.839 126.094H471.112C470.774 124.271 470.175 122.669 469.315 121.289C468.456 119.883 467.375 118.698 466.073 117.734C464.797 116.745 463.365 116.003 461.776 115.508C460.188 114.987 458.482 114.727 456.659 114.727C453.404 114.727 450.5 115.547 447.948 117.188C445.396 118.828 443.391 121.224 441.933 124.375C440.474 127.526 439.745 131.38 439.745 135.938C439.745 140.521 440.474 144.388 441.933 147.539C443.417 150.664 445.422 153.034 447.948 154.648C450.5 156.263 453.404 157.07 456.659 157.07C458.43 157.07 460.11 156.836 461.698 156.367C463.287 155.872 464.719 155.156 465.995 154.219C467.297 153.255 468.378 152.083 469.237 150.703C470.123 149.323 470.748 147.734 471.112 145.938H480.839C480.422 148.776 479.537 151.406 478.183 153.828C476.854 156.224 475.136 158.32 473.026 160.117C470.917 161.888 468.469 163.281 465.683 164.297C462.896 165.286 459.849 165.781 456.542 165.781ZM507.147 165.898C502.798 165.898 499.048 164.974 495.897 163.125C492.746 161.276 490.324 158.672 488.631 155.312C486.964 151.927 486.131 147.969 486.131 143.438C486.131 138.958 486.964 135.026 488.631 131.641C490.298 128.229 492.654 125.573 495.701 123.672C498.748 121.745 502.316 120.781 506.404 120.781C508.983 120.781 511.457 121.198 513.826 122.031C516.196 122.865 518.306 124.167 520.154 125.938C522.029 127.708 523.501 129.987 524.569 132.773C525.636 135.534 526.17 138.867 526.17 142.773V145.859H490.897V139.258H521.444L517.069 141.328C517.069 138.75 516.665 136.484 515.858 134.531C515.076 132.578 513.891 131.055 512.303 129.961C510.74 128.841 508.8 128.281 506.483 128.281C504.139 128.281 502.147 128.841 500.506 129.961C498.865 131.081 497.602 132.565 496.717 134.414C495.858 136.237 495.428 138.268 495.428 140.508V145.039C495.428 147.878 495.923 150.286 496.912 152.266C497.902 154.245 499.282 155.755 501.053 156.797C502.824 157.839 504.881 158.359 507.225 158.359C508.761 158.359 510.154 158.138 511.404 157.695C512.681 157.253 513.774 156.589 514.686 155.703C515.623 154.818 516.326 153.724 516.795 152.422L525.623 153.711C524.998 156.159 523.852 158.294 522.186 160.117C520.545 161.94 518.436 163.359 515.858 164.375C513.306 165.391 510.402 165.898 507.147 165.898ZM542.126 139.258V165H532.751V121.328H541.931V128.633H542.439C543.454 126.237 545.017 124.336 547.126 122.93C549.236 121.497 551.931 120.781 555.212 120.781C558.207 120.781 560.824 121.419 563.064 122.695C565.303 123.945 567.035 125.794 568.259 128.242C569.509 130.69 570.134 133.685 570.134 137.227V165H560.759V138.555C560.759 135.508 559.965 133.125 558.376 131.406C556.814 129.688 554.652 128.828 551.892 128.828C549.991 128.828 548.311 129.245 546.853 130.078C545.395 130.885 544.236 132.07 543.376 133.633C542.543 135.169 542.126 137.044 542.126 139.258ZM599.84 121.328V128.75H575.426V121.328H599.84ZM581.676 110.938H591.012V152.031C591.012 153.88 591.416 155.247 592.223 156.133C593.031 157.018 594.294 157.461 596.012 157.461C596.481 157.461 596.976 157.422 597.497 157.344C598.018 157.266 598.525 157.174 599.02 157.07L600.661 164.609C599.697 164.922 598.682 165.156 597.614 165.312C596.546 165.495 595.478 165.586 594.411 165.586C590.478 165.586 587.366 164.518 585.075 162.383C582.809 160.247 581.676 157.37 581.676 153.75V110.938ZM606.461 165V121.328H615.523V128.477H615.992C616.799 126.029 618.193 124.128 620.172 122.773C622.177 121.419 624.429 120.742 626.929 120.742C627.476 120.742 628.101 120.768 628.804 120.82C629.534 120.846 630.133 120.898 630.601 120.977V129.727C630.211 129.622 629.56 129.518 628.648 129.414C627.737 129.284 626.838 129.219 625.953 129.219C624.026 129.219 622.294 129.635 620.758 130.469C619.221 131.302 618.01 132.448 617.125 133.906C616.265 135.339 615.836 136.992 615.836 138.867V165H606.461ZM652.769 165.898C648.42 165.898 644.67 164.974 641.519 163.125C638.368 161.276 635.946 158.672 634.253 155.312C632.586 151.927 631.753 147.969 631.753 143.438C631.753 138.958 632.586 135.026 634.253 131.641C635.92 128.229 638.276 125.573 641.323 123.672C644.37 121.745 647.938 120.781 652.026 120.781C654.604 120.781 657.078 121.198 659.448 122.031C661.818 122.865 663.927 124.167 665.776 125.938C667.651 127.708 669.123 129.987 670.19 132.773C671.258 135.534 671.792 138.867 671.792 142.773V145.859H636.519V139.258H667.065L662.69 141.328C662.69 138.75 662.287 136.484 661.479 134.531C660.698 132.578 659.513 131.055 657.925 129.961C656.362 128.841 654.422 128.281 652.104 128.281C649.761 128.281 647.769 128.841 646.128 129.961C644.487 131.081 643.224 132.565 642.339 134.414C641.479 136.237 641.05 138.268 641.05 140.508V145.039C641.05 147.878 641.545 150.286 642.534 152.266C643.524 154.245 644.904 155.755 646.675 156.797C648.446 157.839 650.503 158.359 652.847 158.359C654.383 158.359 655.776 158.138 657.026 157.695C658.302 157.253 659.396 156.589 660.308 155.703C661.245 154.818 661.948 153.724 662.417 152.422L671.245 153.711C670.62 156.159 669.474 158.294 667.808 160.117C666.167 161.94 664.058 163.359 661.479 164.375C658.927 165.391 656.024 165.898 652.769 165.898ZM718.001 121.328V128.75H692.806V121.328H718.001ZM699.408 165V116.758C699.408 113.919 700.007 111.562 701.204 109.688C702.428 107.812 704.043 106.406 706.048 105.469C708.079 104.531 710.293 104.062 712.689 104.062C714.46 104.062 715.996 104.206 717.298 104.492C718.6 104.779 719.551 105.039 720.15 105.273L718.119 112.695C717.702 112.539 717.181 112.396 716.556 112.266C715.931 112.109 715.176 112.031 714.29 112.031C712.311 112.031 710.892 112.526 710.033 113.516C709.173 114.479 708.744 115.872 708.744 117.695V165H699.408ZM741.145 165.898C736.978 165.898 733.346 164.961 730.247 163.086C727.174 161.185 724.791 158.555 723.098 155.195C721.406 151.81 720.559 147.878 720.559 143.398C720.559 138.867 721.406 134.909 723.098 131.523C724.791 128.112 727.174 125.469 730.247 123.594C733.346 121.719 736.978 120.781 741.145 120.781C745.338 120.781 748.984 121.719 752.083 123.594C755.182 125.469 757.577 128.112 759.27 131.523C760.963 134.909 761.809 138.867 761.809 143.398C761.809 147.878 760.963 151.81 759.27 155.195C757.577 158.555 755.182 161.185 752.083 163.086C748.984 164.961 745.338 165.898 741.145 165.898ZM741.184 158.164C743.71 158.164 745.781 157.5 747.395 156.172C749.036 154.844 750.26 153.06 751.067 150.82C751.9 148.555 752.317 146.068 752.317 143.359C752.317 140.625 751.9 138.138 751.067 135.898C750.26 133.633 749.036 131.836 747.395 130.508C745.781 129.18 743.71 128.516 741.184 128.516C738.684 128.516 736.601 129.18 734.934 130.508C733.294 131.836 732.07 133.633 731.262 135.898C730.455 138.138 730.051 140.625 730.051 143.359C730.051 146.068 730.455 148.555 731.262 150.82C732.07 153.06 733.294 154.844 734.934 156.172C736.601 157.5 738.684 158.164 741.184 158.164ZM768.508 165V121.328H777.57V128.477H778.039C778.846 126.029 780.239 124.128 782.219 122.773C784.224 121.419 786.476 120.742 788.976 120.742C789.523 120.742 790.148 120.768 790.851 120.82C791.581 120.846 792.18 120.898 792.648 120.977V129.727C792.258 129.622 791.607 129.518 790.695 129.414C789.784 129.284 788.885 129.219 788 129.219C786.073 129.219 784.341 129.635 782.805 130.469C781.268 131.302 780.057 132.448 779.172 133.906C778.312 135.339 777.883 136.992 777.883 138.867V165H768.508Z" fill="#283131"/>
<path d="M432.89 289V216.246H460.185C465.393 216.246 469.706 217.076 473.124 218.736C476.575 220.396 479.146 222.675 480.839 225.572C482.532 228.437 483.378 231.66 483.378 235.24C483.378 238.235 482.808 240.774 481.669 242.857C480.562 244.941 479.065 246.617 477.177 247.887C475.321 249.156 473.238 250.084 470.927 250.67V251.402C473.433 251.5 475.842 252.281 478.153 253.746C480.497 255.178 482.418 257.197 483.915 259.801C485.445 262.405 486.21 265.562 486.21 269.273C486.21 273.017 485.315 276.386 483.524 279.381C481.767 282.343 479.065 284.687 475.419 286.412C471.806 288.137 467.183 289 461.552 289H432.89ZM444.95 278.795H459.989C465.002 278.795 468.599 277.818 470.78 275.865C472.994 273.912 474.101 271.471 474.101 268.541C474.101 266.262 473.547 264.228 472.44 262.438C471.334 260.615 469.755 259.166 467.704 258.092C465.653 257.018 463.228 256.48 460.429 256.48H444.95V278.795ZM444.95 247.496H458.866C461.243 247.496 463.375 247.04 465.263 246.129C467.151 245.217 468.648 243.948 469.755 242.32C470.862 240.693 471.415 238.756 471.415 236.51C471.415 233.613 470.39 231.204 468.339 229.283C466.321 227.33 463.261 226.354 459.159 226.354H444.95V247.496ZM493.827 289V234.41H505.155V243.346H505.741C506.75 240.286 508.492 237.91 510.966 236.217C513.472 234.524 516.288 233.678 519.413 233.678C520.097 233.678 520.878 233.71 521.757 233.775C522.668 233.808 523.417 233.873 524.003 233.971V244.908C523.515 244.778 522.701 244.648 521.562 244.518C520.422 244.355 519.299 244.273 518.192 244.273C515.784 244.273 513.619 244.794 511.698 245.836C509.778 246.878 508.264 248.31 507.157 250.133C506.083 251.923 505.546 253.99 505.546 256.334V289H493.827ZM528.886 289V234.41H540.604V289H528.886ZM534.745 226.402C532.825 226.402 531.164 225.751 529.765 224.449C528.365 223.147 527.665 221.568 527.665 219.713C527.665 217.857 528.365 216.295 529.765 215.025C531.164 213.723 532.825 213.072 534.745 213.072C536.698 213.072 538.358 213.723 539.726 215.025C541.125 216.295 541.825 217.857 541.825 219.713C541.825 221.568 541.125 223.147 539.726 224.449C538.358 225.751 536.698 226.402 534.745 226.402ZM576.688 234.41V243.688H546.171V234.41H576.688ZM553.983 221.422H565.653V272.789C565.653 275.1 566.158 276.809 567.167 277.916C568.176 279.023 569.755 279.576 571.903 279.576C572.489 279.576 573.108 279.527 573.759 279.43C574.41 279.332 575.045 279.218 575.663 279.088L577.714 288.512C576.509 288.902 575.24 289.195 573.905 289.391C572.571 289.618 571.236 289.732 569.901 289.732C564.986 289.732 561.096 288.398 558.231 285.729C555.399 283.059 553.983 279.462 553.983 274.938V221.422ZM583.964 289V234.41H595.683V289H583.964ZM589.823 226.402C587.903 226.402 586.243 225.751 584.843 224.449C583.443 223.147 582.743 221.568 582.743 219.713C582.743 217.857 583.443 216.295 584.843 215.025C586.243 213.723 587.903 213.072 589.823 213.072C591.776 213.072 593.437 213.723 594.804 215.025C596.203 216.295 596.903 217.857 596.903 219.713C596.903 221.568 596.203 223.147 594.804 224.449C593.437 225.751 591.776 226.402 589.823 226.402ZM647.392 248.375L636.747 249.791C636.226 248.001 635.136 246.373 633.476 244.908C631.815 243.443 629.407 242.711 626.249 242.711C623.417 242.711 621.041 243.346 619.12 244.615C617.232 245.885 616.288 247.496 616.288 249.449C616.288 251.142 616.923 252.525 618.192 253.6C619.462 254.674 621.545 255.553 624.442 256.236L633.427 258.189C638.505 259.296 642.281 261.07 644.755 263.512C647.261 265.921 648.515 269.062 648.515 272.936C648.515 276.288 647.538 279.267 645.585 281.871C643.664 284.443 640.995 286.461 637.577 287.926C634.159 289.391 630.22 290.123 625.761 290.123C619.348 290.123 614.156 288.756 610.185 286.021C606.246 283.287 603.853 279.462 603.007 274.547L614.384 273.18C615.002 275.751 616.272 277.688 618.192 278.99C620.146 280.292 622.652 280.943 625.712 280.943C628.967 280.943 631.588 280.276 633.573 278.941C635.559 277.574 636.552 275.914 636.552 273.961C636.552 270.706 634.029 268.508 628.983 267.369L619.755 265.318C614.579 264.179 610.754 262.34 608.28 259.801C605.806 257.262 604.569 254.039 604.569 250.133C604.569 246.812 605.481 243.932 607.304 241.49C609.127 239.049 611.666 237.145 614.921 235.777C618.176 234.41 621.92 233.727 626.151 233.727C632.304 233.727 637.138 235.061 640.653 237.73C644.169 240.367 646.415 243.915 647.392 248.375ZM667.46 256.822V289H655.741V216.246H667.216V243.541H667.948C669.218 240.514 671.171 238.121 673.808 236.363C676.444 234.605 679.879 233.727 684.11 233.727C687.854 233.727 691.125 234.508 693.925 236.07C696.757 237.633 698.954 239.944 700.517 243.004C702.079 246.064 702.86 249.824 702.86 254.283V289H691.093V255.943C691.093 252.07 690.1 249.075 688.114 246.959C686.161 244.843 683.41 243.785 679.862 243.785C677.453 243.785 675.321 244.306 673.466 245.348C671.61 246.357 670.146 247.838 669.071 249.791C667.997 251.712 667.46 254.055 667.46 256.822ZM735.038 289V216.246H761.649C767.281 216.246 771.968 217.288 775.712 219.371C779.488 221.454 782.32 224.303 784.208 227.916C786.129 231.497 787.089 235.566 787.089 240.123C787.089 244.68 786.129 248.766 784.208 252.379C782.287 255.96 779.423 258.792 775.614 260.875C771.838 262.926 767.151 263.951 761.552 263.951H743.583V253.844H760.136C763.554 253.844 766.337 253.258 768.485 252.086C770.666 250.914 772.261 249.286 773.271 247.203C774.312 245.12 774.833 242.76 774.833 240.123C774.833 237.421 774.312 235.045 773.271 232.994C772.261 230.943 770.666 229.348 768.485 228.209C766.337 227.037 763.521 226.451 760.038 226.451H747.099V289H735.038ZM794.511 289V234.41H805.839V243.346H806.425C807.434 240.286 809.175 237.91 811.649 236.217C814.156 234.524 816.972 233.678 820.097 233.678C820.78 233.678 821.562 233.71 822.44 233.775C823.352 233.808 824.101 233.873 824.687 233.971V244.908C824.198 244.778 823.384 244.648 822.245 244.518C821.106 244.355 819.983 244.273 818.876 244.273C816.467 244.273 814.302 244.794 812.382 245.836C810.461 246.878 808.948 248.31 807.841 250.133C806.767 251.923 806.229 253.99 806.229 256.334V289H794.511ZM850.858 290.123C845.65 290.123 841.109 288.951 837.235 286.607C833.394 284.231 830.416 280.943 828.3 276.744C826.184 272.512 825.126 267.597 825.126 261.998C825.126 256.334 826.184 251.386 828.3 247.154C830.416 242.89 833.394 239.586 837.235 237.242C841.109 234.898 845.65 233.727 850.858 233.727C856.099 233.727 860.657 234.898 864.53 237.242C868.404 239.586 871.399 242.89 873.515 247.154C875.631 251.386 876.688 256.334 876.688 261.998C876.688 267.597 875.631 272.512 873.515 276.744C871.399 280.943 868.404 284.231 864.53 286.607C860.657 288.951 856.099 290.123 850.858 290.123ZM850.907 280.455C854.065 280.455 856.653 279.625 858.671 277.965C860.722 276.305 862.252 274.075 863.261 271.275C864.302 268.443 864.823 265.335 864.823 261.949C864.823 258.531 864.302 255.423 863.261 252.623C862.252 249.791 860.722 247.545 858.671 245.885C856.653 244.225 854.065 243.395 850.907 243.395C847.782 243.395 845.178 244.225 843.095 245.885C841.044 247.545 839.514 249.791 838.505 252.623C837.496 255.423 836.991 258.531 836.991 261.949C836.991 265.335 837.496 268.443 838.505 271.275C839.514 274.075 841.044 276.305 843.095 277.965C845.178 279.625 847.782 280.455 850.907 280.455ZM907.304 310.582C900.565 310.582 895.259 309.296 891.386 306.725C887.545 304.153 884.989 301.077 883.72 297.496L894.022 294.225C894.608 295.266 895.422 296.34 896.464 297.447C897.506 298.587 898.905 299.531 900.663 300.279C902.453 301.061 904.716 301.451 907.45 301.451C911.291 301.451 914.465 300.523 916.972 298.668C919.511 296.812 920.78 293.801 920.78 289.635V279.137H920.048C919.429 280.374 918.502 281.692 917.265 283.092C916.028 284.492 914.368 285.696 912.284 286.705C910.201 287.682 907.532 288.17 904.276 288.17C900.045 288.17 896.22 287.177 892.802 285.191C889.384 283.173 886.666 280.195 884.647 276.256C882.662 272.317 881.669 267.418 881.669 261.559C881.669 255.634 882.662 250.605 884.647 246.471C886.633 242.337 889.351 239.179 892.802 236.998C896.252 234.817 900.126 233.727 904.423 233.727C907.711 233.727 910.396 234.28 912.479 235.387C914.563 236.461 916.207 237.763 917.411 239.293C918.616 240.79 919.543 242.141 920.194 243.346H920.927V234.41H932.353V290.074C932.353 294.729 931.262 298.57 929.081 301.598C926.9 304.625 923.922 306.871 920.146 308.336C916.369 309.833 912.089 310.582 907.304 310.582ZM907.304 278.746C911.633 278.746 914.97 277.216 917.313 274.156C919.657 271.064 920.829 266.816 920.829 261.412C920.829 257.831 920.308 254.706 919.267 252.037C918.257 249.368 916.744 247.285 914.726 245.787C912.707 244.257 910.233 243.492 907.304 243.492C904.276 243.492 901.737 244.29 899.687 245.885C897.668 247.447 896.138 249.579 895.097 252.281C894.088 254.983 893.583 258.027 893.583 261.412C893.583 264.863 894.104 267.89 895.146 270.494C896.187 273.098 897.717 275.133 899.735 276.598C901.786 278.03 904.309 278.746 907.304 278.746ZM942.167 289V234.41H953.495V243.346H954.081C955.09 240.286 956.832 237.91 959.306 236.217C961.812 234.524 964.628 233.678 967.753 233.678C968.437 233.678 969.218 233.71 970.097 233.775C971.008 233.808 971.757 233.873 972.343 233.971V244.908C971.854 244.778 971.041 244.648 969.901 244.518C968.762 244.355 967.639 244.273 966.532 244.273C964.123 244.273 961.959 244.794 960.038 245.836C958.118 246.878 956.604 248.31 955.497 250.133C954.423 251.923 953.886 253.99 953.886 256.334V289H942.167ZM999.052 290.123C993.616 290.123 988.928 288.967 984.989 286.656C981.05 284.345 978.023 281.09 975.907 276.891C973.824 272.659 972.782 267.711 972.782 262.047C972.782 256.448 973.824 251.533 975.907 247.301C977.991 243.036 980.937 239.716 984.745 237.34C988.554 234.931 993.013 233.727 998.124 233.727C1001.35 233.727 1004.44 234.247 1007.4 235.289C1010.36 236.331 1013 237.958 1015.31 240.172C1017.66 242.385 1019.49 245.234 1020.83 248.717C1022.16 252.167 1022.83 256.334 1022.83 261.217V265.074H978.739V256.822H1016.92L1011.45 259.41C1011.45 256.188 1010.95 253.355 1009.94 250.914C1008.96 248.473 1007.48 246.568 1005.5 245.201C1003.54 243.801 1001.12 243.102 998.222 243.102C995.292 243.102 992.802 243.801 990.751 245.201C988.7 246.601 987.121 248.456 986.015 250.768C984.94 253.046 984.403 255.585 984.403 258.385V264.049C984.403 267.597 985.022 270.608 986.259 273.082C987.496 275.556 989.221 277.444 991.435 278.746C993.648 280.048 996.22 280.699 999.149 280.699C1001.07 280.699 1002.81 280.423 1004.37 279.869C1005.97 279.316 1007.34 278.486 1008.48 277.379C1009.65 276.272 1010.53 274.905 1011.11 273.277L1022.15 274.889C1021.37 277.949 1019.93 280.618 1017.85 282.896C1015.8 285.175 1013.16 286.949 1009.94 288.219C1006.75 289.488 1003.12 290.123 999.052 290.123ZM1072 248.375L1061.36 249.791C1060.84 248.001 1059.75 246.373 1058.08 244.908C1056.42 243.443 1054.02 242.711 1050.86 242.711C1048.03 242.711 1045.65 243.346 1043.73 244.615C1041.84 245.885 1040.9 247.496 1040.9 249.449C1040.9 251.142 1041.53 252.525 1042.8 253.6C1044.07 254.674 1046.15 255.553 1049.05 256.236L1058.04 258.189C1063.11 259.296 1066.89 261.07 1069.36 263.512C1071.87 265.921 1073.12 269.062 1073.12 272.936C1073.12 276.288 1072.15 279.267 1070.19 281.871C1068.27 284.443 1065.6 286.461 1062.19 287.926C1058.77 289.391 1054.83 290.123 1050.37 290.123C1043.96 290.123 1038.77 288.756 1034.79 286.021C1030.86 283.287 1028.46 279.462 1027.62 274.547L1038.99 273.18C1039.61 275.751 1040.88 277.688 1042.8 278.99C1044.75 280.292 1047.26 280.943 1050.32 280.943C1053.58 280.943 1056.2 280.276 1058.18 278.941C1060.17 277.574 1061.16 275.914 1061.16 273.961C1061.16 270.706 1058.64 268.508 1053.59 267.369L1044.36 265.318C1039.19 264.179 1035.36 262.34 1032.89 259.801C1030.42 257.262 1029.18 254.039 1029.18 250.133C1029.18 246.812 1030.09 243.932 1031.91 241.49C1033.74 239.049 1036.28 237.145 1039.53 235.777C1042.79 234.41 1046.53 233.727 1050.76 233.727C1056.91 233.727 1061.75 235.061 1065.26 237.73C1068.78 240.367 1071.02 243.915 1072 248.375ZM1122.29 248.375L1111.65 249.791C1111.13 248.001 1110.04 246.373 1108.38 244.908C1106.72 243.443 1104.31 242.711 1101.15 242.711C1098.32 242.711 1095.94 243.346 1094.02 244.615C1092.13 245.885 1091.19 247.496 1091.19 249.449C1091.19 251.142 1091.83 252.525 1093.09 253.6C1094.36 254.674 1096.45 255.553 1099.34 256.236L1108.33 258.189C1113.41 259.296 1117.18 261.07 1119.66 263.512C1122.16 265.921 1123.42 269.062 1123.42 272.936C1123.42 276.288 1122.44 279.267 1120.49 281.871C1118.57 284.443 1115.9 286.461 1112.48 287.926C1109.06 289.391 1105.12 290.123 1100.66 290.123C1094.25 290.123 1089.06 288.756 1085.09 286.021C1081.15 283.287 1078.76 279.462 1077.91 274.547L1089.29 273.18C1089.9 275.751 1091.17 277.688 1093.09 278.99C1095.05 280.292 1097.55 280.943 1100.61 280.943C1103.87 280.943 1106.49 280.276 1108.48 278.941C1110.46 277.574 1111.45 275.914 1111.45 273.961C1111.45 270.706 1108.93 268.508 1103.89 267.369L1094.66 265.318C1089.48 264.179 1085.66 262.34 1083.18 259.801C1080.71 257.262 1079.47 254.039 1079.47 250.133C1079.47 246.812 1080.38 243.932 1082.21 241.49C1084.03 239.049 1086.57 237.145 1089.82 235.777C1093.08 234.41 1096.82 233.727 1101.05 233.727C1107.21 233.727 1112.04 235.061 1115.56 237.73C1119.07 240.367 1121.32 243.915 1122.29 248.375Z" fill="#283131"/>
</svg>
