<svg width="58" height="63" viewBox="0 0 58 63" fill="none" xmlns="http://www.w3.org/2000/svg">
<path fill-rule="evenodd" clip-rule="evenodd" d="M13.2636 0.273438L0 10.6506H26.5273L13.2636 0.273438Z" fill="#544C43"/>
<path d="M27.0712 47.3525H17.123V52.9962H27.0712V47.3525Z" fill="#544C43"/>
<path d="M58 47.3525H30.9306V52.9962H58V47.3525Z" fill="#544C43"/>
<path d="M58 56.8555H0.00177002V62.4991H58V56.8555Z" fill="#544C43"/>
<path d="M16.7586 14.4868H10.309V23.2575H16.7586V14.4868Z" fill="#544C43"/>
<path d="M27.0712 14.4868H20.6216V23.2575H27.0712V14.4868Z" fill="#544C43"/>
<path d="M27.0712 27.1401H17.123V43.4913H27.0712V27.1401Z" fill="#544C43"/>
<path d="M13.2636 27.1401H0.0179443V52.9961H13.2636V27.1401Z" fill="#544C43"/>
<path d="M6.44963 14.5103H0V23.2809H6.44963V14.5103Z" fill="#544C43"/>
<path fill-rule="evenodd" clip-rule="evenodd" d="M44.4509 12.769L30.9019 23.3688H58L44.4509 12.769Z" fill="#544C43"/>
<path d="M47.691 27.1382H41.2414V43.4929H47.691V27.1382Z" fill="#544C43"/>
<path d="M58 27.1382H51.5504V43.4929H58V27.1382Z" fill="#544C43"/>
<path d="M37.3802 27.1382H30.9306V43.4929H37.3802V27.1382Z" fill="#544C43"/>
</svg>
