<svg width="98" height="15" viewBox="0 0 98 15" fill="none" xmlns="http://www.w3.org/2000/svg">
<path d="M71.1568 14.7C67.1682 14.7 63.9533 11.7968 63.9533 7.35C63.9533 3.18794 67.1682 0 71.4008 0C73.4765 0 75.0229 0.751168 76.1009 1.62435V5.11658H76.0401C74.8597 3.9592 73.3334 3.02526 71.6243 3.02526C69.1826 3.02526 67.3304 4.89314 67.3304 7.30933C67.3304 10.0097 69.284 11.6948 71.6037 11.6948C73.4348 11.6948 75.0219 10.8422 76.3248 9.66427L76.3655 9.70494L75.9377 13.1771C74.7372 14.0096 73.252 14.7 71.1558 14.7H71.1568Z" fill="#544C43"/>
<path d="M41.0948 14.4565L47.3419 0.203339H50.8214L56.9263 14.4565H53.4061L52.2257 11.5326H45.7146L44.4935 14.4565H41.0953H41.0948ZM46.7318 8.91358H51.2084L49.0108 3.53289L46.7318 8.91358Z" fill="#544C43"/>
<path d="M30.5956 14.457L26.3835 9.29971H25.529V14.457H22.2322V0.244019H27.1974C30.5549 0.244019 32.5899 1.78703 32.5899 4.67019C32.5899 6.53807 31.4913 8.00023 29.7616 8.7514L34.5028 14.457H30.596H30.5956ZM27.0141 2.88365H25.4677V6.90361H26.9534C28.3778 6.90361 29.3343 6.09168 29.3343 4.85296C29.3343 3.61424 28.3778 2.88365 27.0146 2.88365H27.0141Z" fill="#544C43"/>
<path d="M0 0.244019V3.18794H4.32768V3.18647H5.08718V14.4565H8.36332V3.18647H8.92241V3.18794H13.4505V0.244019H0Z" fill="#544C43"/>
<path d="M84.5495 0.244019V3.18794H88.9771V3.18647H89.6367V14.457H92.9128V3.18647H93.5724V3.18794H98V0.244019H84.5495Z" fill="#544C43"/>
</svg>
